<?xml version="1.0" standalone="no"?>
<!DOCTYPE svg PUBLIC "-//W3C//DTD SVG 20010904//EN"
 "http://www.w3.org/TR/2001/REC-SVG-20010904/DTD/svg10.dtd">
<svg version="1.0" xmlns="http://www.w3.org/2000/svg"
 width="979.000000pt" height="979.000000pt" viewBox="0 0 979.000000 979.000000"
 preserveAspectRatio="xMidYMid meet">
<metadata>
Created by potrace 1.11, written by Peter Selinger 2001-2013
</metadata>
<g transform="translate(0.000000,979.000000) scale(0.100000,-0.100000)"
fill="#000000" stroke="none">
<path d="M4658 9786 c-1 -2 -55 -6 -118 -10 -63 -3 -124 -8 -135 -10 -11 -2
-49 -7 -85 -10 -36 -4 -76 -8 -90 -11 -13 -2 -60 -9 -104 -15 -341 -47 -828
-190 -1194 -351 -480 -212 -953 -518 -1326 -859 -461 -422 -823 -902 -1096
-1455 -150 -304 -238 -533 -330 -855 -37 -133 -75 -294 -96 -410 -10 -56 -11
-61 -24 -145 -7 -44 -14 -88 -15 -97 -2 -9 -7 -48 -10 -85 -4 -37 -8 -79 -11
-93 -25 -159 -25 -790 1 -975 2 -16 9 -73 15 -125 24 -203 61 -393 121 -625
277 -1074 933 -2040 1839 -2707 265 -195 629 -406 920 -532 36 -16 83 -36 105
-46 176 -76 634 -222 770 -246 17 -2 37 -7 45 -9 8 -2 26 -6 40 -9 14 -3 50
-10 80 -16 66 -13 78 -15 200 -34 245 -39 430 -51 755 -51 226 1 373 7 467 19
18 3 58 8 88 11 52 5 219 29 285 40 17 3 104 22 194 41 392 85 735 206 1106
389 651 321 1171 737 1648 1316 399 483 749 1164 912 1774 38 140 96 410 111
514 4 25 8 55 10 65 15 82 30 218 41 366 14 201 7 764 -12 859 -2 13 -7 49
-10 80 -4 31 -10 81 -15 111 -5 30 -11 73 -15 95 -3 22 -10 63 -15 90 -5 28
-12 61 -14 75 -24 140 -100 426 -161 605 -314 933 -923 1775 -1707 2358 -344
255 -748 482 -1123 630 -156 62 -441 156 -550 183 -5 1 -66 16 -135 33 -69 16
-141 33 -160 36 -19 3 -71 12 -115 20 -87 16 -112 20 -195 31 -82 10 -98 12
-180 20 -41 3 -84 8 -95 11 -23 5 -611 13 -617 9z m707 -311 c284 -30 603 -94
843 -167 93 -28 102 -33 102 -56 0 -18 -4 -23 -16 -18 -13 5 -14 3 -7 -6 5 -7
8 -19 7 -25 -1 -7 -2 -18 -3 -24 0 -5 -5 -8 -9 -5 -4 2 -7 -11 -7 -29 1 -19
-2 -32 -7 -29 -4 3 -8 0 -8 -5 0 -6 -7 -11 -15 -11 -8 0 -16 -4 -16 -10 -3
-19 -5 -25 -15 -43 -10 -17 -20 -16 -180 27 -410 110 -719 150 -1149 150 -613
-1 -1143 -108 -1698 -345 -1345 -574 -2313 -1800 -2561 -3242 -46 -267 -59
-430 -59 -737 0 -307 13 -469 59 -738 294 -1722 1616 -3108 3324 -3487 330
-73 579 -99 945 -99 613 1 1143 108 1698 345 1343 574 2322 1812 2562 3241 71
424 81 869 30 1278 -114 900 -501 1730 -1122 2405 -233 254 -556 524 -842 706
-68 43 -99 69 -96 78 4 11 2 11 -8 2 -11 -8 -18 -6 -32 9 -10 11 -22 17 -26
14 -5 -3 -6 3 -2 12 4 11 8 13 11 6 2 -7 10 -12 18 -12 9 0 13 -4 9 -9 -3 -5
-1 -13 5 -16 6 -4 9 -1 8 7 -2 7 3 12 11 10 11 -2 12 0 3 11 -10 11 -9 17 5
28 15 12 16 12 10 -3 -3 -10 -3 -19 1 -22 4 -3 8 4 9 14 2 17 -43 60 -61 60
-8 0 -28 16 -57 45 -17 16 -17 21 -5 33 8 8 20 12 26 10 9 -3 8 -8 -4 -20 -15
-16 -15 -17 3 -15 11 0 19 4 19 7 -2 21 4 30 15 24 8 -5 8 -2 -2 9 -16 20 -26
23 -15 5 6 -10 5 -10 -8 -1 -8 7 -19 9 -23 5 -5 -4 -5 -1 -1 6 4 7 11 10 16 7
5 -3 11 -1 15 5 3 5 1 10 -6 10 -7 0 -10 2 -7 5 3 3 18 1 34 -5 27 -9 28 -9
10 5 -21 16 -31 45 -15 45 4 0 13 -9 19 -20 11 -21 30 -27 30 -9 0 5 -3 8 -8
5 -4 -2 -12 6 -18 18 -9 20 2 16 80 -27 127 -70 358 -222 495 -327 931 -710
1553 -1731 1751 -2873 203 -1171 -48 -2364 -703 -3347 -699 -1047 -1818 -1777
-3044 -1984 -305 -51 -425 -60 -788 -60 -363 0 -483 9 -788 60 -1140 192
-2197 841 -2899 1779 -409 547 -695 1185 -827 1850 -280 1400 99 2840 1030
3920 692 802 1656 1347 2696 1525 161 28 395 55 543 64 132 8 579 -4 715 -19z
m-159 -295 c280 -22 560 -70 797 -135 158 -43 204 -62 190 -76 -6 -6 -9 -18
-6 -25 3 -8 0 -14 -7 -14 -7 0 -10 -7 -6 -15 3 -8 2 -15 -3 -15 -4 0 -8 -6 -9
-12 -1 -15 -10 -52 -12 -55 -2 -2 -4 -7 -5 -13 -1 -5 -4 -12 -5 -15 -1 -3 -4
-9 -5 -15 -1 -5 -4 -12 -5 -15 -1 -3 -4 -9 -5 -15 -1 -5 -4 -12 -5 -15 -1 -3
-3 -9 -4 -14 0 -5 -4 -12 -8 -16 -4 -4 -4 -13 -1 -21 3 -8 1 -14 -4 -14 -5 0
-10 -12 -11 -26 -1 -15 -7 -33 -13 -40 -6 -8 -9 -14 -6 -14 3 0 0 -15 -8 -34
-8 -18 -11 -36 -8 -40 4 -3 1 -6 -6 -6 -9 0 -12 -9 -9 -25 3 -15 1 -22 -5 -18
-6 4 -8 0 -4 -10 4 -10 1 -17 -5 -17 -6 0 -8 -3 -5 -7 4 -3 2 -12 -4 -20 -6
-7 -9 -13 -6 -13 4 0 -1 -19 -9 -42 -9 -24 -17 -47 -18 -53 -1 -5 -4 -14 -7
-20 -4 -5 -10 -23 -14 -40 -5 -16 -10 -37 -12 -45 -3 -8 -5 -23 -6 -32 -1 -10
-4 -18 -7 -18 -7 0 -35 -91 -32 -102 1 -5 -2 -8 -8 -8 -6 0 -9 -3 -9 -7 4 -25
-3 -43 -16 -43 -8 0 -63 13 -121 30 -134 37 -323 74 -490 96 -161 21 -551 24
-714 5 -389 -44 -791 -160 -1111 -322 l-57 -28 -4 137 c-5 200 -25 222 -208
222 -114 0 -156 -13 -185 -56 -17 -25 -20 -50 -23 -195 l-4 -165 -391 1 c-216
0 -418 -3 -449 -6 -114 -13 -234 -92 -293 -193 -55 -94 -55 -96 -55 -932 l0
-773 -30 -123 c-69 -280 -94 -491 -94 -793 0 -300 28 -538 91 -770 l27 -100 5
-895 6 -895 32 -67 c44 -93 100 -151 191 -196 l76 -37 755 -5 756 -5 87 -37
c244 -103 561 -182 873 -219 142 -17 527 -17 675 0 309 34 632 115 878 219
l87 37 755 5 c723 5 757 6 803 25 109 45 200 142 236 252 21 62 21 78 21 918
l0 854 35 141 c67 276 95 531 90 830 -5 274 -31 483 -95 743 l-31 126 2 543
c2 370 6 548 13 557 8 11 8 13 -2 7 -8 -5 -11 -1 -9 13 2 11 6 23 10 27 3 4 3
12 0 18 -12 19 -12 36 0 36 8 0 8 3 2 8 -14 10 -16 75 -2 84 9 6 9 8 0 8 -7 0
-13 5 -13 11 0 5 4 8 9 5 5 -3 11 1 14 9 4 9 1 12 -9 8 -7 -3 -14 0 -14 6 0 6
4 11 9 11 5 0 12 7 15 16 5 13 3 14 -7 6 -11 -9 -13 9 -11 101 1 62 -2 114 -7
117 -4 3 -11 21 -14 40 -3 19 -10 37 -16 41 -5 3 -7 14 -3 24 5 12 4 16 -4 11
-6 -4 -16 3 -22 16 -11 22 -10 22 4 4 9 -11 16 -15 16 -9 0 7 -5 15 -10 18 -6
4 -8 10 -5 15 3 4 -3 6 -14 3 -10 -3 -23 1 -27 9 -9 13 -10 18 -13 38 0 6 -6
9 -12 8 -6 -2 -14 3 -17 11 -3 8 0 11 7 7 7 -5 9 -1 5 9 -6 14 -8 14 -19 -2
-13 -17 -14 -17 -20 -1 -4 10 -12 15 -18 11 -6 -4 -7 -1 -3 6 5 7 14 10 20 8
7 -3 13 1 13 8 0 10 -6 11 -25 2 -20 -9 -26 -9 -30 1 -2 6 -8 12 -13 12 -6 0
-7 -6 -3 -12 4 -7 -2 -5 -13 5 -11 9 -23 14 -28 10 -4 -5 -3 2 4 14 17 33 13
38 -10 12 l-20 -24 6 25 c4 14 3 20 -2 14 -4 -6 -17 -14 -27 -18 -19 -7 -19
-6 -2 13 13 14 14 21 5 27 -7 4 -10 3 -6 -3 8 -12 -37 -45 -47 -35 -4 3 -21 7
-39 8 -18 1 -41 5 -51 9 -15 7 -17 5 -11 -6 8 -12 6 -12 -8 0 -17 14 -24 26
-9 17 4 -2 14 -1 21 3 9 6 10 11 2 15 -6 4 -11 2 -11 -4 0 -6 -4 -9 -9 -6 -5
3 -14 -1 -21 -9 -15 -19 -40 -8 -41 19 -1 16 -2 17 -6 4 -2 -10 -11 -18 -19
-18 -8 0 -13 -4 -9 -9 3 -5 1 -13 -5 -16 -6 -4 -9 -1 -8 5 4 15 -39 33 -47 20
-3 -6 -17 -5 -33 1 -34 13 -32 13 -46 -7 -12 -15 -14 -15 -38 0 -13 9 -28 13
-32 9 -9 -9 -37 -13 -32 -4 3 4 -13 7 -35 7 -21 0 -39 -4 -39 -10 -1 -6 -9 -1
-19 12 -21 25 -36 29 -28 8 7 -18 -46 -14 -69 5 -15 12 -16 11 -10 -11 6 -25
6 -25 -5 -2 -7 12 -16 22 -21 22 -5 0 -7 -4 -4 -8 3 -5 -2 -9 -10 -9 -8 0 -13
6 -10 13 2 6 -5 14 -16 17 -13 4 -17 10 -12 18 4 7 3 10 -4 5 -6 -3 -13 -2
-17 4 -3 5 -11 10 -18 10 -6 0 -1 -7 11 -16 22 -15 22 -17 5 -30 -25 -19 -41
-18 -17 2 18 15 18 15 -11 9 -16 -3 -25 -2 -18 2 7 5 10 17 8 28 -2 11 -4 25
-4 30 -1 6 -5 3 -11 -5 -5 -8 -12 -11 -16 -7 -4 3 -1 13 6 22 10 12 9 16 -4
21 -9 3 -13 11 -9 17 4 6 1 7 -7 2 -10 -6 -12 -4 -7 8 3 9 1 19 -5 23 -7 4 -8
3 -4 -4 4 -7 3 -12 -2 -12 -6 0 -13 7 -16 16 -3 8 -2 12 4 9 5 -3 7 7 5 25 -2
17 0 28 5 25 4 -3 10 2 14 10 3 9 0 15 -10 15 -8 0 -12 5 -9 10 4 7 13 6 26
-1 12 -6 23 -8 27 -5 3 3 0 6 -6 6 -21 0 -42 31 -33 48 4 9 6 22 4 29 -2 6 1
14 7 18 8 5 8 11 -1 21 -9 11 -8 14 5 14 10 0 14 5 11 10 -3 6 -2 10 3 10 5 0
9 7 9 15 0 8 -5 15 -11 15 -6 0 -4 5 4 10 8 5 15 15 15 21 0 7 6 14 13 17 18
6 15 -14 -5 -34 -16 -15 -16 -17 -2 -12 9 4 22 1 28 -5 8 -8 14 -8 22 0 8 8 7
11 -2 10 -16 -2 -19 4 -19 34 0 11 4 18 9 15 10 -7 35 43 32 63 -2 12 0 13 12
2 13 -10 15 -9 12 6 -4 29 14 46 34 31 13 -10 14 -10 4 1 -9 11 -8 19 3 36 12
18 12 22 0 22 -8 0 -12 -6 -9 -13 2 -6 -1 -15 -8 -19 -7 -5 -10 -3 -7 6 3 8
-2 23 -11 34 -8 11 -9 15 -2 8 9 -7 20 -9 30 -4 9 5 24 7 33 6 11 -2 15 2 11
11 -6 17 -15 18 -31 2 -9 -9 -12 -9 -12 0 0 7 5 12 12 12 6 0 3 7 -8 16 -10 8
-14 13 -7 10 6 -4 14 -2 18 4 3 5 12 10 18 10 7 0 6 -4 -3 -10 -8 -5 -11 -12
-7 -17 9 -9 28 17 21 29 -7 11 3 10 26 -2 13 -7 21 -7 26 2 4 6 3 8 -3 5 -6
-4 -19 0 -29 8 -18 14 -18 15 7 11 27 -4 34 13 14 31 -4 4 -5 2 0 -6 6 -10 4
-12 -5 -6 -9 5 -11 4 -6 -3 5 -8 1 -10 -9 -6 -14 6 -13 9 5 21 19 13 23 13 38
0 9 -8 27 -18 40 -21 12 -4 22 -12 22 -17 0 -5 5 -9 10 -9 6 0 43 -21 83 -47
952 -622 1623 -1600 1855 -2703 62 -291 89 -548 91 -865 7 -940 -283 -1825
-849 -2590 -220 -298 -556 -636 -855 -860 -629 -471 -1316 -745 -2115 -842
-204 -25 -734 -25 -940 0 -798 96 -1481 368 -2115 843 -301 225 -632 557 -855
859 -403 544 -668 1155 -784 1805 -51 286 -61 411 -61 760 0 349 10 474 61
760 237 1333 1106 2487 2329 3090 500 247 1043 393 1615 433 111 8 479 6 596
-3z m1903 -491 c-25 -22 -34 -24 -22 -6 4 6 8 15 9 20 1 4 2 9 3 12 0 2 8 2
16 -1 13 -5 12 -10 -6 -25z m-99 -139 c0 -5 -2 -10 -4 -10 -3 0 -8 5 -11 10
-3 6 -1 10 4 10 6 0 11 -4 11 -10z m-75 -160 c-8 -9 -12 -20 -8 -24 5 -4 1 -6
-7 -4 -8 2 -15 -4 -15 -12 -1 -28 -22 -52 -49 -55 -14 -2 -24 1 -21 5 3 5 12
7 20 3 10 -3 14 0 12 8 -2 8 -2 11 0 6 3 -4 9 -4 14 -1 6 3 5 12 -3 22 -10 12
-10 14 0 8 6 -4 12 -3 12 3 0 5 7 17 17 26 14 14 14 18 2 27 -10 6 -7 7 11 2
23 -6 24 -6 10 12 -14 18 -14 18 3 5 16 -12 16 -16 2 -31z m-1636 -305 c216
-30 529 -104 557 -132 12 -12 12 -18 -1 -44 -9 -16 -12 -29 -9 -29 4 0 0 -8
-9 -18 -10 -10 -14 -22 -10 -25 3 -4 1 -7 -6 -7 -7 0 -9 -5 -6 -10 3 -6 -1
-13 -9 -16 -9 -3 -14 -10 -11 -14 3 -5 -2 -15 -10 -23 -8 -9 -15 -20 -15 -25
0 -5 -12 -12 -26 -15 -39 -7 -2364 -4 -2364 3 0 8 227 118 310 151 256 101
574 181 825 208 55 6 116 13 135 15 81 10 541 -4 649 -19z m1487 -170 c4 -8
13 -15 21 -15 12 0 13 -3 3 -15 -14 -16 -4 -39 14 -32 7 3 13 -1 13 -9 0 -7
-4 -11 -9 -8 -4 3 -8 -1 -8 -8 0 -7 -7 0 -15 16 -8 15 -15 35 -15 42 0 8 -5
14 -11 14 -5 0 -8 4 -5 9 4 5 0 12 -6 14 -10 4 -10 6 0 6 7 1 15 -6 18 -14z
m133 -128 c0 -9 -2 -8 -6 1 -2 6 -10 9 -15 6 -7 -4 -8 -2 -4 5 9 13 26 5 25
-12z m476 -37 c3 -6 -1 -7 -9 -4 -18 7 -21 14 -7 14 6 0 13 -4 16 -10z m-4819
-570 c-124 -127 -227 -248 -326 -384 l-65 -90 -3 40 c-2 21 -2 120 0 219 4
187 9 215 57 269 45 51 96 62 298 62 l153 0 -114 -116z m384 86 c1 -267 7
-294 66 -333 38 -24 230 -28 275 -4 65 33 73 56 79 219 l5 147 1102 2 c606 1
1111 -1 1122 -4 18 -5 20 -12 16 -62 -3 -31 -9 -71 -14 -88 -5 -18 -7 -33 -4
-33 3 0 0 -7 -7 -15 -7 -8 -9 -15 -6 -15 4 0 2 -9 -4 -21 -7 -11 -14 -33 -16
-47 -3 -15 -7 -28 -9 -31 -3 -2 -62 10 -132 27 -249 62 -483 82 -713 63 -465
-40 -913 -225 -1243 -515 -38 -34 -80 -68 -93 -77 -21 -14 -91 -16 -612 -15
l-587 1 0 85 0 86 78 110 c42 61 116 157 164 215 102 122 295 317 324 328 12
4 63 7 115 7 l94 0 0 -30z m4204 9 c-4 -8 -8 -15 -10 -15 -2 0 -4 7 -4 15 0 8
4 15 10 15 5 0 7 -7 4 -15z m122 -24 c-2 9 0 22 5 30 7 11 9 11 9 1 0 -10 10
-12 38 -8 25 4 32 3 22 -3 -8 -5 -17 -8 -21 -5 -4 2 -10 0 -13 -5 -4 -5 5 -8
19 -7 13 2 22 0 20 -5 -3 -4 0 -11 6 -15 8 -4 9 -3 5 4 -4 7 -2 12 4 12 6 0 8
4 5 10 -3 6 1 7 9 4 9 -3 16 -10 16 -16 0 -5 -4 -7 -8 -4 -5 3 -9 -1 -9 -9 0
-8 4 -12 9 -9 4 3 8 0 8 -5 0 -20 19 -11 32 14 l13 25 14 -23 c13 -20 13 -21
-2 -8 -15 12 -17 11 -15 -13 4 -44 48 -62 48 -20 0 12 -4 13 -22 4 -22 -11
-22 -11 -4 4 22 17 32 12 38 -19 2 -11 10 -19 17 -17 7 1 10 -2 6 -8 -3 -6 -9
-8 -13 -6 -4 2 -14 -3 -22 -12 -13 -14 -12 -15 4 -9 10 4 25 2 32 -4 11 -9 11
-16 -1 -39 -11 -21 -12 -31 -3 -36 6 -4 9 -3 5 2 -3 5 1 18 9 29 8 10 14 14
14 8 0 -7 -5 -15 -10 -18 -6 -4 -7 -11 -4 -17 10 -16 15 -80 6 -74 -4 2 -8 -4
-8 -14 0 -10 4 -16 8 -14 14 9 4 -51 -11 -62 -11 -9 -12 -12 -1 -19 9 -5 11
-4 6 3 -4 7 -3 12 2 12 4 0 8 -29 8 -64 1 -70 1 -70 -56 4 -52 68 -232 278
-289 338 -54 56 -57 61 -41 80 7 9 7 9 -2 2 -13 -11 -45 -14 -35 -3 4 3 -1 11
-9 18 -15 11 -15 12 -1 12 9 0 19 -7 22 -15 5 -12 9 -12 27 4 12 11 18 13 14
7 -4 -8 -1 -13 8 -13 9 0 16 4 16 9 0 6 9 9 19 8 11 0 17 -5 15 -9 -3 -5 -9
-6 -14 -3 -14 9 -23 -16 -11 -28 9 -9 11 -8 5 6 -3 10 -3 17 2 16 22 -4 34 2
34 19 1 11 6 7 16 -13 8 -16 12 -23 10 -14z m-338 20 c-2 -22 4 -30 19 -24 11
4 14 3 9 -5 -11 -18 0 -14 15 5 12 15 12 16 -1 8 -13 -7 -13 -6 -2 7 23 28 49
14 146 -80 184 -177 428 -484 410 -514 -4 -6 -3 -8 4 -4 7 4 10 -12 9 -50 -2
-47 -5 -58 -20 -60 -11 -1 -22 -5 -25 -9 -4 -3 6 -4 21 -1 27 5 28 4 25 -32
-4 -37 -4 -37 -53 -38 -28 -1 -53 3 -57 10 -5 8 -8 8 -8 0 0 -8 -69 -11 -230
-11 -154 0 -227 3 -223 10 4 6 1 7 -8 2 -22 -14 -120 -15 -112 -1 4 6 -1 4
-11 -4 -16 -13 -20 -12 -33 5 -11 15 -14 15 -10 4 5 -15 -6 -17 -99 -15 -62 0
-104 5 -104 11 0 7 -3 7 -8 0 -10 -14 -32 -17 -32 -5 0 6 -5 10 -11 10 -5 0
-8 -4 -5 -8 7 -12 -125 -7 -157 6 -16 7 -25 17 -22 22 4 6 2 9 -3 8 -5 -2 -56
33 -113 78 -57 45 -137 103 -176 129 -40 26 -73 52 -73 57 0 5 -3 7 -7 5 -5
-3 -15 2 -23 11 -13 14 -12 15 3 9 12 -5 16 -3 11 5 -5 8 -1 9 12 4 15 -6 17
-5 7 5 -16 16 -17 33 -1 23 8 -5 9 -2 5 10 -5 11 -3 15 5 10 7 -5 9 1 6 19 -4
20 -2 24 11 19 14 -5 14 -4 1 13 -15 19 -15 19 15 1 22 -15 27 -15 17 -4 -11
14 -10 18 4 26 10 5 19 17 20 26 1 9 -2 14 -7 10 -5 -3 -7 -9 -5 -13 3 -4 -4
-12 -14 -19 -14 -9 -21 -9 -26 0 -4 7 -3 8 5 4 6 -4 14 0 18 11 4 10 15 27 25
37 9 10 15 23 12 27 -3 5 2 6 11 3 14 -6 14 -8 -2 -19 -10 -8 -15 -17 -10 -21
4 -4 14 1 21 12 11 15 12 22 3 33 -8 10 -8 12 -1 8 6 -3 17 5 24 19 10 18 16
21 22 12 6 -10 10 -10 18 2 9 13 10 13 11 0 1 -8 1 -19 0 -24 -1 -5 6 -3 15 5
16 13 17 12 10 -6 -4 -11 -9 -24 -10 -30 -1 -5 -5 -16 -10 -23 -7 -11 -4 -11
13 0 12 7 21 16 21 21 0 4 -5 5 -12 1 -7 -5 -8 -3 -3 6 6 10 11 10 20 -3 7 -9
14 -16 16 -14 2 1 1 -2 -3 -7 -11 -13 -10 -28 1 -22 4 3 8 -7 7 -22 -1 -24 2
-27 30 -26 20 1 31 -4 31 -12 0 -10 -4 -11 -14 -2 -11 9 -12 7 -7 -7 6 -14 4
-16 -7 -10 -8 5 -11 5 -6 -1 14 -15 31 -11 45 11 10 15 12 16 8 2 -5 -15 -2
-16 14 -7 16 9 18 8 14 -5 -4 -8 -10 -15 -15 -15 -5 0 -9 -5 -9 -11 0 -6 5 -7
13 -2 6 4 24 8 40 9 24 0 32 -7 28 -28 0 -5 4 -8 10 -8 6 0 8 9 4 20 -4 11 -2
20 4 20 6 0 11 -4 11 -10 0 -5 7 -10 16 -10 14 0 14 1 0 16 -22 22 -20 25 8
13 16 -8 23 -17 19 -28 -4 -13 -3 -14 5 -1 8 10 7 18 0 28 -9 11 -7 11 15 1
23 -10 25 -15 14 -28 -11 -14 -10 -14 5 -2 10 7 15 18 12 23 -7 10 28 7 36 -3
3 -4 11 0 18 7 11 12 10 14 -12 10 -14 -3 -28 -1 -31 4 -3 4 3 7 12 6 10 -2
31 5 49 16 35 21 89 78 73 78 -5 0 -7 5 -4 10 4 6 12 7 18 3 7 -4 5 2 -3 12
-14 17 -13 18 5 11 11 -4 16 -4 12 0 -10 10 13 35 27 28 6 -3 2 2 -9 10 -11 9
-26 14 -35 11 -11 -4 -11 -2 2 8 14 11 15 16 5 26 -9 10 -8 11 7 5 15 -6 17
-3 12 14 -4 11 -2 23 3 27 7 4 8 -1 4 -11 -4 -12 -3 -15 6 -10 7 5 11 17 8 27
-4 13 4 24 24 36 16 10 29 22 29 28 0 5 5 2 11 -7 11 -20 29 -24 29 -7 0 5 -6
7 -12 3 -7 -4 -10 -4 -6 1 4 4 3 13 -2 20 -7 8 -5 12 5 12 8 0 13 -3 11 -6 -2
-3 2 -12 10 -19 9 -8 14 -9 14 -2 0 6 4 9 9 6 5 -3 14 1 21 9 17 20 30 19 31
-2 0 -12 2 -13 6 -5 3 7 0 19 -6 26 -8 9 -7 13 4 13 7 0 14 -3 13 -6z m-60
-17 c-4 -11 -28 -14 -28 -4 0 8 22 20 28 14 2 -1 2 -6 0 -10z m539 -13 c0 -11
-5 -18 -9 -15 -4 3 -5 11 -1 19 7 21 12 19 10 -4z m-705 -183 c-7 -7 -12 -8
-12 -2 0 14 12 26 19 19 2 -3 -1 -11 -7 -17z m-1472 -47 c121 -22 221 -47 268
-67 l33 -13 -16 -37 c-8 -20 -13 -40 -10 -44 3 -5 1 -11 -5 -15 -5 -3 -10 -15
-10 -26 0 -10 -5 -19 -11 -19 -5 0 -8 -4 -4 -9 4 -8 -37 -131 -78 -231 -6 -14
-11 -27 -11 -30 -1 -3 -8 -14 -16 -25 -20 -27 -81 -61 -67 -37 3 4 -418 6
-934 6 -517 -1 -942 2 -944 7 -7 10 178 158 280 225 282 183 600 295 965 338
92 11 459 -4 560 -23z m1055 -61 c3 -6 -1 -7 -9 -4 -18 7 -21 14 -7 14 6 0 13
-4 16 -10z m139 -60 c-8 -7 -54 -7 -54 0 0 4 13 7 29 6 16 0 27 -3 25 -6z
m-454 -60 c0 -5 -5 -10 -11 -10 -5 0 -7 5 -4 10 3 6 8 10 11 10 2 0 4 -4 4
-10z m64 -137 c117 -75 298 -224 252 -207 -13 5 -17 4 -12 -4 5 -9 1 -10 -16
-3 -13 4 -29 6 -36 4 -7 -3 -19 0 -26 6 -7 6 -16 8 -20 4 -12 -12 -46 -13 -46
-2 0 8 -5 7 -16 -1 -12 -11 -18 -11 -30 2 -12 12 -13 17 -3 23 8 6 10 4 4 -5
-5 -9 -4 -11 4 -6 21 13 3 22 -39 19 -22 -1 -38 2 -36 6 7 10 -52 7 -61 -4 -5
-4 -3 -5 4 -1 7 4 17 -3 23 -16 9 -20 9 -21 -2 -7 -7 9 -17 17 -23 18 -32 6
-68 19 -54 20 9 1 20 8 23 17 7 18 1 15 -54 -31 -13 -11 -19 -13 -13 -5 12 16
12 37 0 57 -4 6 -3 14 3 18 5 3 10 15 10 27 0 13 5 18 14 15 10 -4 13 -1 9 8
-3 8 -10 12 -16 8 -6 -4 -7 -1 -2 6 4 7 16 10 27 8 15 -4 17 -3 8 8 -6 8 -19
11 -28 8 -9 -3 -5 4 11 16 26 22 39 49 15 35 -6 -4 -8 -3 -4 4 11 18 56 3 130
-45z m-24 -178 c7 -9 8 -15 2 -15 -5 0 -12 7 -16 15 -3 8 -4 15 -2 15 2 0 9
-7 16 -15z m-90 1 c0 -2 -11 -6 -25 -8 -13 -3 -22 -1 -19 3 5 9 44 13 44 5z
m131 -10 c14 8 11 -2 -4 -14 -10 -8 -13 -6 -14 11 0 12 1 16 4 9 3 -6 9 -10
14 -6z m-767 -155 c-14 -45 -28 -81 -30 -78 -2 2 5 35 16 73 29 94 30 97 35
93 2 -3 -7 -42 -21 -88z m-29 -108 c-4 -10 -13 -38 -20 -63 -8 -25 -18 -60
-24 -77 -8 -27 -7 -33 6 -33 12 0 14 -9 10 -42 -9 -69 -16 -80 -46 -73 -267
68 -508 53 -743 -47 -270 -114 -486 -339 -592 -614 -48 -126 -69 -237 -70
-381 l-1 -123 -183 0 -182 0 2 -187 3 -188 193 -3 192 -2 1 72 c1 40 0 87 -1
103 -3 42 2 33 45 -75 86 -217 231 -402 409 -519 40 -26 40 -26 13 -29 -26 -3
-27 -5 -28 -75 -2 -215 0 -290 8 -298 5 -5 90 -8 194 -7 l184 3 3 118 3 119
77 -9 c87 -9 220 -11 301 -3 l55 5 1 -110 c1 -60 3 -113 4 -118 0 -4 88 -6
194 -5 l192 3 2 193 2 193 63 46 c131 96 250 237 327 387 38 75 40 77 43 44
l3 -33 195 0 195 0 3 187 2 188 -160 2 -160 3 -4 130 c-5 114 -14 183 -41 288
l-7 27 186 0 186 0 0 190 0 190 -200 0 -200 0 0 -152 0 -153 -29 62 c-73 153
-223 329 -368 430 -58 40 -70 52 -60 63 10 10 9 11 -2 5 -10 -6 -12 -4 -7 4 5
7 15 10 23 6 14 -5 14 -3 2 12 -9 11 -10 14 -1 9 7 -4 12 -2 12 4 0 6 5 8 10
5 6 -4 10 -3 9 2 -3 20 2 34 11 28 6 -3 10 1 10 9 0 10 6 13 18 9 15 -6 15 -5
3 10 -12 15 -12 17 4 11 12 -5 16 -4 11 4 -3 6 3 13 14 17 11 4 18 11 15 16
-3 5 1 6 10 2 9 -3 12 -9 7 -12 -6 -3 -3 -12 6 -21 14 -13 15 -13 10 1 -3 9
-2 22 3 30 7 12 9 12 9 -1 0 -10 11 -16 31 -16 31 -2 34 6 3 10 -10 2 -20 9
-22 17 -3 11 -1 11 7 -1 10 -13 11 -13 11 0 0 10 3 11 8 4 4 -6 15 -10 24 -9
11 2 15 -2 12 -13 -5 -14 -4 -14 6 1 6 9 8 23 5 30 -4 6 0 3 9 -7 8 -10 13
-23 10 -27 -3 -5 0 -9 6 -9 7 0 9 8 5 19 -3 11 -1 22 4 26 6 3 8 0 5 -8 -3 -8
0 -18 7 -23 8 -5 10 -3 4 6 -6 10 -4 12 8 7 10 -3 17 -2 17 3 0 6 -6 10 -12
10 -9 0 -8 4 2 10 8 5 20 10 25 10 6 0 3 -5 -5 -10 -13 -8 -12 -10 3 -10 9 0
17 -8 18 -17 0 -11 3 -13 6 -5 2 6 10 9 16 5 7 -4 6 1 -2 10 -8 10 -9 17 -3
17 6 0 13 -4 16 -9 3 -5 24 -6 47 -4 32 4 40 2 34 -7 -5 -9 -4 -11 4 -6 6 4 9
12 6 17 -4 5 0 9 7 10 7 1 28 2 45 4 21 2 30 -1 26 -8 -4 -6 -1 -7 8 -1 19 12
42 11 51 -1 5 -6 8 -5 8 3 0 6 5 12 11 12 5 0 7 -6 3 -12 -5 -9 -2 -9 9 1 14
11 17 11 18 0 0 -10 2 -11 6 -1 2 6 9 12 14 12 6 0 7 -6 3 -12 -5 -9 -2 -9 9
1 14 11 17 11 18 0 0 -10 2 -11 6 -1 3 7 23 12 52 12 26 0 53 -6 60 -12 10 -9
12 -10 7 -1 -5 9 39 12 185 12 170 0 194 -2 206 -17 49 -63 203 -376 203 -413
0 -5 -36 -9 -80 -9 l-80 0 0 -190 0 -189 133 -3 132 -3 7 -45 c4 -25 11 -125
14 -222 l7 -177 -144 -3 -144 -3 0 -185 0 -185 114 -3 113 -3 -7 -35 c-15 -83
-119 -364 -147 -401 -5 -6 -24 -13 -41 -15 l-32 -3 -5 -70 c-6 -81 -22 -111
-138 -270 -89 -120 -317 -348 -428 -427 l-80 -57 -90 -3 -89 -3 -5 -55 c-5
-54 -6 -55 -55 -82 -60 -32 -237 -104 -317 -129 l-58 -17 0 144 0 144 -194 0
c-176 0 -194 -2 -198 -17 -3 -10 -4 -91 -4 -180 1 -154 0 -162 -19 -167 -28
-8 -299 -7 -362 0 l-53 7 0 178 0 179 -195 0 -195 0 -1 -27 c-1 -16 -1 -74 -1
-131 1 -76 -3 -104 -12 -108 -19 -7 -260 90 -348 139 -64 37 -73 46 -75 72 0
17 -2 36 -2 43 -1 8 -22 12 -69 12 l-67 0 -90 67 c-119 89 -325 295 -413 413
-90 122 -169 253 -183 303 -6 22 -19 47 -29 56 -33 30 -160 368 -160 427 0 11
20 14 90 14 50 0 91 3 92 8 4 19 6 339 1 355 -4 15 -19 17 -125 17 l-121 0 6
178 c6 189 21 298 68 482 49 189 160 445 251 577 l29 43 1053 0 1053 0 29 95
c15 52 32 95 37 95 5 0 6 -8 2 -17z m-2256 -225 c-197 -334 -308 -746 -309
-1140 l0 -87 -52 -3 -53 -3 0 -185 0 -185 82 -3 81 -3 13 -52 c16 -67 81 -259
114 -332 14 -32 25 -59 25 -61 0 -2 -72 -4 -160 -4 l-160 0 2 -187 3 -188 189
-3 c144 -2 191 1 197 10 5 7 8 44 8 83 -1 152 -7 149 69 33 128 -193 295 -377
463 -509 l81 -64 -91 -3 -91 -3 2 -187 3 -187 184 -3 c106 -1 189 2 194 7 5 5
10 59 10 120 1 61 5 111 9 111 5 0 48 -20 96 -44 48 -23 132 -60 187 -80 146
-55 147 -55 142 -69 -2 -6 0 -20 5 -29 8 -16 25 -18 146 -18 75 0 166 -5 202
-11 95 -14 382 -19 475 -8 44 6 150 13 235 17 151 7 154 7 160 31 4 20 24 30
128 66 67 24 161 61 208 84 47 22 88 41 90 41 2 0 5 -48 6 -107 l3 -108 195 0
195 0 3 187 2 187 -70 3 -69 3 77 62 c156 125 296 274 420 446 l71 98 3 -78 3
-78 195 0 195 0 0 185 0 185 -138 3 c-105 2 -138 6 -134 15 40 90 100 253 123
334 l29 102 60 3 60 3 0 185 0 185 -31 3 -31 3 -7 157 c-3 86 -9 187 -12 224
l-7 67 44 3 44 3 0 185 0 185 -94 5 -93 5 -37 91 c-21 49 -67 147 -104 217
l-66 127 409 0 410 -1 0 -1461 0 -1461 -70 -97 c-185 -260 -490 -569 -704
-714 l-39 -26 -1867 0 -1867 0 -133 107 c-234 187 -451 418 -620 661 l-79 113
0 1445 -1 1444 435 0 435 0 -31 -52z m2871 34 c0 -5 -7 -9 -15 -9 -8 0 -12 4
-9 9 3 4 9 8 15 8 5 0 9 -4 9 -8z m-765 -116 c39 -9 76 -20 83 -24 18 -12 -75
-283 -99 -289 -18 -5 -29 -43 -29 -97 0 -42 -59 -243 -176 -604 -4 -9 23 33
58 93 97 168 122 205 136 200 7 -3 11 -1 8 4 -3 4 12 8 34 8 26 0 37 -4 33
-11 -5 -8 -3 -8 8 0 8 6 43 11 79 12 138 4 214 12 221 24 12 19 11 355 -1 363
-6 3 -24 7 -40 7 -17 1 -30 6 -30 12 0 6 -4 5 -9 -2 -7 -11 -9 -11 -14 2 -4
10 -13 13 -24 9 -16 -6 -16 -5 -5 10 8 9 11 20 8 26 -4 5 1 17 10 25 12 12 12
16 2 17 -10 0 -10 2 0 6 6 2 10 9 6 14 -3 5 -1 9 5 9 5 0 8 9 6 20 -2 11 0 18
5 15 5 -3 10 4 12 16 3 19 7 18 66 -20 86 -56 220 -188 282 -277 119 -172 178
-351 187 -565 6 -132 5 -137 -16 -148 -19 -11 -21 -20 -21 -101 0 -96 -16
-154 -78 -275 -85 -168 -241 -335 -398 -425 -51 -29 -54 -30 -198 -30 -80 0
-147 -3 -147 -7 -1 -5 -2 -27 -3 -50 -1 -24 -6 -46 -10 -50 -11 -11 -355 -8
-391 4 -27 8 -30 14 -33 56 l-3 47 -126 0 c-142 0 -154 4 -276 97 -413 316
-537 881 -293 1339 152 286 429 489 749 550 95 18 328 12 422 -10z m-3357
-1398 l-3 -373 -22 110 c-49 241 -57 336 -57 630 0 294 8 389 57 630 l22 110
3 -367 c1 -201 1 -534 0 -740z m6281 867 c55 -326 55 -668 0 -1005 -48 -294
-47 -296 -47 500 0 796 0 791 47 505z m-5798 -2392 c162 -224 389 -464 593
-628 l100 -80 -288 -3 c-183 -1 -302 2 -328 8 -53 15 -121 83 -135 136 -9 35
-17 654 -9 654 2 0 32 -39 67 -87z m5294 -580 c-20 -52 -81 -109 -134 -123
-25 -6 -141 -9 -312 -8 l-273 3 98 78 c194 157 392 361 548 568 l83 109 3
-293 c2 -247 0 -298 -13 -334z m-1465 -502 c-8 -5 -75 -30 -149 -55 -679 -235
-1413 -235 -2092 0 -74 25 -141 50 -149 55 -8 5 520 8 1195 8 675 0 1203 -3
1195 -8z"/>
<path d="M7080 8850 c8 -5 20 -10 25 -10 6 0 3 5 -5 10 -8 5 -19 10 -25 10 -5
0 -3 -5 5 -10z"/>
<path d="M6953 8365 c0 -8 4 -12 9 -9 5 3 6 10 3 15 -9 13 -12 11 -12 -6z"/>
<path d="M6833 8198 c-2 -18 0 -20 7 -8 12 18 13 30 2 30 -4 0 -9 -10 -9 -22z"/>
<path d="M6854 8189 c-3 -6 -2 -15 3 -20 5 -5 9 -1 9 11 0 23 -2 24 -12 9z"/>
<path d="M6813 8155 c0 -8 4 -15 9 -15 4 0 8 7 8 15 0 8 -4 15 -8 15 -5 0 -9
-7 -9 -15z"/>
<path d="M6803 8115 c0 -8 4 -12 9 -9 5 3 6 10 3 15 -9 13 -12 11 -12 -6z"/>
<path d="M6816 8083 c-6 -14 -5 -15 5 -6 7 7 10 15 7 18 -3 3 -9 -2 -12 -12z"/>
<path d="M6785 7991 c-3 -6 5 -15 17 -21 21 -10 22 -10 5 3 -14 11 -15 16 -5
20 9 4 9 6 1 6 -6 1 -14 -3 -18 -8z"/>
<path d="M7059 7823 c-13 -17 -13 -17 6 -3 11 8 22 16 24 17 2 2 0 3 -6 3 -6
0 -17 -8 -24 -17z"/>
<path d="M7170 7831 c0 -6 4 -13 10 -16 6 -3 7 1 4 9 -7 18 -14 21 -14 7z"/>
<path d="M6950 7823 c0 -16 25 -23 41 -11 11 8 11 9 -2 5 -9 -3 -22 0 -28 6
-8 8 -11 8 -11 0z"/>
<path d="M7006 7803 c-3 -8 -2 -12 3 -8 5 3 11 0 13 -7 3 -7 7 -3 10 8 6 23
-18 30 -26 7z"/>
<path d="M7096 7804 c-9 -23 0 -30 19 -14 9 7 15 8 15 2 0 -6 12 -9 28 -7 15
2 32 -1 39 -6 7 -7 14 -6 18 1 5 8 15 6 32 -6 24 -15 27 -15 35 0 5 9 13 14
19 11 5 -4 6 2 2 11 -4 11 -3 15 5 10 6 -3 13 -2 16 3 4 5 -1 8 -10 7 -9 -1
-21 -10 -26 -20 -8 -14 -13 -15 -24 -5 -8 6 -17 9 -21 6 -3 -4 -13 -1 -21 6
-13 9 -14 9 -8 0 11 -19 -15 -16 -44 4 -24 17 -25 16 -10 -2 14 -17 13 -18 -5
-11 -11 4 -24 8 -30 9 -5 1 -13 6 -16 10 -3 5 -9 1 -13 -9z"/>
<path d="M7475 7788 c4 -34 4 -34 21 -10 9 13 13 26 10 29 -3 4 -6 1 -6 -7 0
-9 -3 -10 -14 -1 -11 9 -13 7 -11 -11z"/>
<path d="M7324 7788 c-4 -6 -3 -8 4 -4 6 3 14 2 17 -4 5 -8 11 -8 19 -1 7 6
16 8 19 4 4 -3 7 -1 7 5 0 15 -13 15 -28 0 -9 -9 -12 -9 -12 0 0 15 -17 16
-26 0z"/>
<path d="M7425 7790 c-4 -6 -11 -7 -17 -4 -7 4 -8 2 -4 -5 6 -9 11 -9 22 0 14
11 18 19 10 19 -3 0 -8 -5 -11 -10z"/>
<path d="M7560 7780 c-6 -11 -7 -20 -3 -21 50 -6 62 -5 53 6 -5 6 -7 15 -3 18
3 4 3 7 -2 7 -4 0 -14 -8 -22 -17 -13 -17 -14 -16 -10 5 6 27 1 28 -13 2z"/>
<path d="M7630 7760 c0 -16 17 -20 28 -7 8 10 6 13 -9 14 -10 1 -19 -2 -19 -7z"/>
<path d="M7785 7730 c-3 -6 1 -7 9 -4 18 7 21 14 7 14 -6 0 -13 -4 -16 -10z"/>
<path d="M7755 7720 c3 -5 8 -10 11 -10 2 0 4 5 4 10 0 6 -5 10 -11 10 -5 0
-7 -4 -4 -10z"/>
<path d="M7907 7629 c7 -7 15 -10 18 -7 3 3 -2 9 -12 12 -14 6 -15 5 -6 -5z"/>
<path d="M7930 7611 c-8 -6 -18 -7 -24 -4 -5 3 -6 1 -2 -5 5 -9 13 -9 27 -2
10 6 19 13 19 15 0 7 -3 6 -20 -4z"/>
<path d="M7986 7508 c3 -5 10 -6 15 -3 13 9 11 12 -6 12 -8 0 -12 -4 -9 -9z"/>
<path d="M7990 7486 c0 -2 8 -10 18 -17 15 -13 16 -12 3 4 -13 16 -21 21 -21
13z"/>
<path d="M8027 7349 c7 -7 15 -10 18 -7 3 3 -2 9 -12 12 -14 6 -15 5 -6 -5z"/>
<path d="M8019 6903 c-13 -16 -12 -17 4 -4 16 13 21 21 13 21 -2 0 -10 -8 -17
-17z"/>
<path d="M7296 7257 c3 -10 9 -15 12 -12 3 3 0 11 -7 18 -10 9 -11 8 -5 -6z"/>
<path d="M7490 7160 c-9 -6 -10 -10 -3 -10 6 0 15 5 18 10 8 12 4 12 -15 0z"/>
<path d="M7515 7119 c-10 -15 3 -25 16 -12 7 7 7 13 1 17 -6 3 -14 1 -17 -5z"/>
<path d="M7535 7039 c-4 -6 -5 -12 -2 -15 2 -3 7 2 10 11 7 17 1 20 -8 4z"/>
<path d="M7534 6840 c0 -13 4 -16 10 -10 7 7 7 13 0 20 -6 6 -10 3 -10 -10z"/>
<path d="M7008 7258 c8 -8 7 -15 -6 -25 -15 -12 -14 -12 8 -1 14 7 30 11 35 9
6 -1 4 3 -2 10 -7 7 -20 14 -29 15 -12 2 -14 0 -6 -8z"/>
<path d="M6791 7201 c-11 -11 -22 -16 -26 -13 -3 4 -3 -1 1 -11 6 -17 24 -14
24 5 0 6 8 17 18 24 9 7 14 14 10 14 -5 0 -17 -9 -27 -19z"/>
<path d="M6816 7192 c-2 -4 4 -8 14 -8 10 0 16 4 14 8 -3 4 -9 8 -14 8 -5 0
-11 -4 -14 -8z"/>
<path d="M6747 7126 c-4 -10 -1 -13 9 -9 7 3 14 9 14 14 0 14 -17 10 -23 -5z"/>
<path d="M6155 7045 c-5 -17 -2 -45 4 -39 3 3 6 10 6 15 0 5 5 9 10 8 6 -1 9
-6 7 -12 -2 -7 0 -9 4 -4 16 16 10 43 -9 43 -11 0 -21 -5 -22 -11z"/>
<path d="M6234 6956 c1 -8 5 -18 8 -22 4 -3 5 1 4 10 -1 8 -5 18 -8 22 -4 3
-5 -1 -4 -10z"/>
<path d="M6195 6951 c-3 -5 -2 -12 3 -15 5 -3 9 1 9 9 0 17 -3 19 -12 6z"/>
<path d="M7535 6610 c-3 -5 -1 -10 4 -10 6 0 11 5 11 10 0 6 -2 10 -4 10 -3 0
-8 -4 -11 -10z"/>
<path d="M6576 6512 c-3 -5 1 -9 9 -9 8 0 12 4 9 9 -3 4 -7 8 -9 8 -2 0 -6 -4
-9 -8z"/>
<path d="M6391 6507 c2 -1 11 -8 21 -15 12 -10 18 -10 24 -1 4 7 3 9 -4 5 -6
-3 -13 -2 -17 4 -3 5 -11 10 -17 10 -6 0 -9 -1 -7 -3z"/>
<path d="M6470 6490 c0 -5 5 -10 10 -10 6 0 10 5 10 10 0 6 -4 10 -10 10 -5 0
-10 -4 -10 -10z"/>
<path d="M6690 6490 c0 -5 5 -10 11 -10 5 0 7 5 4 10 -3 6 -8 10 -11 10 -2 0
-4 -4 -4 -10z"/>
<path d="M6734 6493 c4 -4 16 -8 28 -10 28 -4 18 6 -12 12 -12 2 -20 1 -16 -2z"/>
<path d="M5925 6700 c-3 -6 1 -7 9 -4 18 7 21 14 7 14 -6 0 -13 -4 -16 -10z"/>
<path d="M5885 6591 c-3 -5 -1 -12 5 -16 6 -4 7 -12 4 -18 -4 -7 -3 -9 1 -4
13 11 17 47 6 47 -6 0 -12 -4 -16 -9z"/>
<path d="M5959 6543 c-13 -17 -13 -17 6 -3 11 8 22 16 24 17 2 2 0 3 -6 3 -6
0 -17 -8 -24 -17z"/>
<path d="M6213 6524 c-6 -16 14 -36 31 -31 18 6 16 22 -4 35 -17 10 -21 10
-27 -4z m33 -21 c-7 -7 -26 7 -26 19 0 6 6 6 15 -2 9 -7 13 -15 11 -17z"/>
<path d="M6122 6510 c-7 -11 -8 -20 -2 -20 5 0 14 9 20 20 6 11 7 20 3 20 -5
0 -14 -9 -21 -20z"/>
<path d="M6155 6511 c-6 -11 4 -18 24 -17 8 1 16 8 18 16 4 13 3 13 -6 0 -7
-10 -11 -11 -11 -2 0 14 -16 16 -25 3z"/>
<path d="M6270 6500 c0 -5 5 -10 11 -10 5 0 7 5 4 10 -3 6 -8 10 -11 10 -2 0
-4 -4 -4 -10z"/>
<path d="M5975 6030 c3 -5 8 -10 11 -10 2 0 4 5 4 10 0 6 -5 10 -11 10 -5 0
-7 -4 -4 -10z"/>
<path d="M3437 5613 c-4 -3 -7 -89 -7 -190 l0 -183 195 0 195 0 0 190 0 190
-188 0 c-104 0 -192 -3 -195 -7z"/>
<path d="M3432 3773 l3 -188 184 -3 c102 -1 189 2 194 7 7 7 12 202 8 344 l-1
27 -195 0 -195 0 2 -187z"/>
<path d="M5915 3947 c-3 -7 -4 -91 -3 -187 l3 -175 195 0 195 0 0 185 0 185
-193 3 c-151 2 -194 0 -197 -11z"/>
<path d="M2602 2943 l3 -188 184 -3 c128 -2 188 1 197 9 12 10 14 47 12 188
l-3 176 -198 3 -197 2 2 -187z"/>
<path d="M5380 5670 c11 -25 50 -39 50 -19 0 6 -4 8 -9 4 -6 -3 -19 5 -31 17
l-22 23 12 -25z"/>
<path d="M4260 5430 l0 -190 193 2 192 3 0 185 0 185 -192 3 -193 2 0 -190z"/>
<path d="M4258 4658 c-2 -73 -2 -159 0 -191 l3 -57 192 2 192 3 3 188 2 187
-194 0 -195 0 -3 -132z"/>
<path d="M5085 4778 c-3 -11 0 -313 4 -356 1 -10 43 -12 194 -10 l192 3 3 188
2 187 -195 0 c-148 0 -197 -3 -200 -12z"/>
</g>
</svg>
